# Blender v3.3.1 OBJ File: 'scene.blend'
# www.blender.org
mtllib scene_cube_12.mtl
o floor_object_floor_data
v -10.000000 -0.001000 10.000000
v -10.000000 -0.001000 -10.000000
v 10.000000 -0.001000 -10.000000
v 10.000000 -0.001000 10.000000
vn 0.0000 -1.0000 0.0000
usemtl floor_material.003
s off
f 1//1 2//1 3//1 4//1
o cube_object_cube_data
v 0.000000 0.000000 1.414214
v -1.414214 0.000000 0.000000
v 0.000000 0.000000 -1.414214
v 1.414214 0.000000 0.000000
v 0.000000 2.000000 1.414214
v -1.414214 2.000000 0.000000
v 0.000000 2.000000 -1.414214
v 1.414214 2.000000 0.000000
vn 0.0000 -1.0000 0.0000
vn 0.0000 1.0000 0.0000
vn -0.7071 0.0000 0.7071
vn 0.7071 0.0000 0.7071
vn 0.7071 0.0000 -0.7071
vn -0.7071 0.0000 -0.7071
usemtl cube_material.003
s off
f 5//2 6//2 7//2 8//2
f 12//3 11//3 10//3 9//3
f 9//4 10//4 6//4 5//4
f 12//5 9//5 5//5 8//5
f 11//6 12//6 8//6 7//6
f 10//7 11//7 7//7 6//7
